<mxfile host="app.diagrams.net" modified="2023-01-25T23:08:28.845Z" agent="5.0 (Macintosh; Intel Mac OS X 10_15_7) AppleWebKit/537.36 (KHTML, like Gecko) Chrome/108.0.0.0 Safari/537.36" etag="E7LBOHyu1huhQa2equLH" version="20.8.11" type="github">
  <diagram name="Page-1" id="RVc5O75SGtg6AM-p8no6">
    <mxGraphModel dx="2092" dy="763" grid="1" gridSize="10" guides="1" tooltips="1" connect="1" arrows="1" fold="1" page="1" pageScale="1" pageWidth="850" pageHeight="1100" math="0" shadow="0">
      <root>
        <mxCell id="0" />
        <mxCell id="1" parent="0" />
        <mxCell id="3C-lH5bUP-_9y8NJJMrf-3" value="" style="edgeStyle=orthogonalEdgeStyle;rounded=0;orthogonalLoop=1;jettySize=auto;html=1;" parent="1" source="3C-lH5bUP-_9y8NJJMrf-1" target="3C-lH5bUP-_9y8NJJMrf-2" edge="1">
          <mxGeometry relative="1" as="geometry" />
        </mxCell>
        <mxCell id="3C-lH5bUP-_9y8NJJMrf-1" value="tphysbc&lt;br&gt;(physpkg.F90)" style="rounded=1;whiteSpace=wrap;html=1;absoluteArcSize=1;arcSize=14;strokeWidth=2;" parent="1" vertex="1">
          <mxGeometry x="-810" y="320" width="100" height="100" as="geometry" />
        </mxCell>
        <mxCell id="3C-lH5bUP-_9y8NJJMrf-2" value="chem_timestep_tend&lt;br&gt;(mozart/chemistry.F90)" style="rounded=1;whiteSpace=wrap;html=1;absoluteArcSize=1;arcSize=14;strokeWidth=2;" parent="1" vertex="1">
          <mxGeometry x="-640" y="320" width="130" height="100" as="geometry" />
        </mxCell>
        <mxCell id="3C-lH5bUP-_9y8NJJMrf-4" value="drydep_update&lt;br&gt;(mozart/chemistry.F90)" style="rounded=1;whiteSpace=wrap;html=1;arcSize=14;strokeWidth=2;" parent="1" vertex="1">
          <mxGeometry x="-470" y="90" width="120" height="60" as="geometry" />
        </mxCell>
        <mxCell id="9GyQKj4CsxLB9RSnQ89A-4" value="drydep_update&lt;br&gt;(mozart/chemistry.F90)" style="rounded=1;whiteSpace=wrap;html=1;arcSize=14;strokeWidth=2;" vertex="1" parent="1">
          <mxGeometry x="-460" y="330" width="120" height="60" as="geometry" />
        </mxCell>
      </root>
    </mxGraphModel>
  </diagram>
</mxfile>
